<?xml version="1.0" encoding="UTF-8" standalone="no"?>
<svg
   class="icon icon-tabler icon-tabler-building-pavilon"
   width="24"
   height="24"
   viewBox="0 0 24 24"
   stroke-width="2"
   stroke="currentColor"
   fill="none"
   stroke-linecap="round"
   stroke-linejoin="round"
   version="1.1"
   id="svg3"
   sodipodi:docname="iconbg.svg"
   inkscape:version="1.3 (0e150ed6c4, 2023-07-21)"
   xmlns:inkscape="http://www.inkscape.org/namespaces/inkscape"
   xmlns:sodipodi="http://sodipodi.sourceforge.net/DTD/sodipodi-0.dtd"
   xmlns="http://www.w3.org/2000/svg"
   xmlns:svg="http://www.w3.org/2000/svg">
  <defs
     id="defs3" />
  <sodipodi:namedview
     id="namedview3"
     pagecolor="#ffffff"
     bordercolor="#000000"
     borderopacity="0.25"
     inkscape:showpageshadow="2"
     inkscape:pageopacity="0.0"
     inkscape:pagecheckerboard="0"
     inkscape:deskcolor="#d1d1d1"
     inkscape:zoom="32"
     inkscape:cx="6.28125"
     inkscape:cy="9.859375"
     inkscape:window-width="2560"
     inkscape:window-height="1361"
     inkscape:window-x="-9"
     inkscape:window-y="-9"
     inkscape:window-maximized="1"
     inkscape:current-layer="svg3" />
  <path
     stroke="none"
     d="M 0,0 H 24 V 24 H 0 Z"
     id="path1"
     style="display:none" />
  <path
     d="m 3,21 h 7 v -3 a 2,2 0 0 1 4,0 v 3 h 7"
     id="path2"
     style="display:none" />
  <line
     x1="6"
     y1="21"
     x2="6"
     y2="12"
     id="line2"
     style="display:none" />
  <line
     x1="18"
     y1="21"
     x2="18"
     y2="12"
     id="line3"
     style="display:none" />
  <path
     d="M 6,12 H 18 A 3,3 0 0 0 21,9 9,8 0 0 1 12,3 9,8 0 0 1 3,9 3,3 0 0 0 6,12"
     id="path3"
     style="display:none" />
  <rect
     style="display:inline;fill:#ffc0cb;fill-opacity:1;stroke:#ffc0cb;stroke-width:1.002;stroke-dasharray:none;stroke-opacity:1"
     id="rect3"
     width="22.990343"
     height="22.993767"
     x="0.50674242"
     y="0.50604641" />
</svg>
